{"title":"Space.Cop.2016.BRRip.480p.x264.AAC-VYTO [P2PDL]","uid":14281180,"size":429421720,"categoryP":"video","categoryS":"movies","magnet":"?xt=urn:btih:6534577848fe88b2ca28065bbbda5dd9e1f04f73&amp;dn=Space.Cop.2016.BRRip.480p.x264.AAC-VYTO+%5BP2PDL%5D&amp;tr=udp%3A%2F%2Ftracker.leechers-paradise.org%3A6969&amp;tr=udp%3A%2F%2Fzer0day.ch%3A1337&amp;tr=udp%3A%2F%2Fopen.demonii.com%3A1337&amp;tr=udp%3A%2F%2Ftracker.coppersurfer.tk%3A6969&amp;tr=udp%3A%2F%2Fexodus.desync.com%3A6969","seeders":1,"leechers":0,"uploader":"VYTOP2PDL","files":6,"time":1460359437,"description":"____    ____ ____    ____ .___________.  ______   \r\n     /   /      /   / |           | /  __    \r\n    /   /      /   /  `---|  |----`|  |  |  | \r\n        /     _    _/       |  |     |  |  |  | \r\n       /        |  |         |  |     |  `--'  | \r\n    __/         |__|         |__|      ______/  \r\n                                                  \r\nPresenting Small Encodes with quality for years!\r\n                                                                                                   \r\n                                                                                                   \r\n\r\n\r\nSpace.Cop.2016.BRRip.480p.x264.AAC-VYTO\r\n\r\n\r\nGenre: Action, Comedy, Sci-Fi  \nhttp://www.imdb.com/title/tt3892384/\r\n\r\n\r\nFormat                                   : MPEG-4\r\nFile size                                : 401 MiB\r\nDuration                                 : 1h 42mn\r\nOverall bit rate                         : 549 Kbps\r\n\r\nVideo\r\nFormat                                   : AVC\r\nBit rate                                 : 514 Kbps\r\nWidth                                    : 720 pixels\r\nHeight                                   : 304 pixels\r\nDisplay aspect ratio                     : 2.35:1\r\nFrame rate mode                          : Constant\r\nFrame rate                               : 23.976 fps\r\nColor space                              : YUV\r\nChroma subsampling                       : 4:2:0\r\nBit depth                                : 8 bits\r\nStream size                              : 376 MiB (94%)\r\nWriting library                          : x264\r\n\r\nAudio\r\nFormat                                   : AAC\r\nBit rate mode                            : Variable\r\nBit rate                                 : 32.0 Kbps\r\nChannel(s)                               : 2 channels\r\nChannel positions                        : Front: L R \r\nSampling rate                            : 48.0 KHz\r\nStream size                              : 23.4 MiB (6%)\r\nLanguage                                 : English\r\n\r\nSubtitle                                 : N/a\r\n\r\nScfreen Shots: (Click the link to view)\r\n \nhttps://ititli.com/XhZ \nhttps://ititli.com/Xhc \nhttps://ititli.com/Xhi \nhttps://ititli.com/Xhp \nhttps://ititli.com/XhD \nhttps://ititli.com/Xha \nhttps://ititli.com/Xhb \nhttps://ititli.com/Xhz \nhttps://ititli.com/XhI\r\n\r\n----------------------------------------------------------------------------------------------------\r\n\r\n\r\nEncoder Notes: Looking For Early Access To Anything You Can Provide WEBDL, DVDScr, DVDR, BluRay,\r\nDirect Audio, Music Releases and Seedboxes. If You Got anything to offer please contact us.\r\n\r\nSupport us by donating BC - 1FgwdzPsd1y25Gea8wP1qni35uGCtmkRCD\r\n\r\n\r\nFind us and join us!","torrent":{"xt":"urn:btih:6534577848fe88b2ca28065bbbda5dd9e1f04f73","amp;dn":"Space.Cop.2016.BRRip.480p.x264.AAC-VYTO+%5BP2PDL%5D","amp;tr":["udp%3A%2F%2Ftracker.leechers-paradise.org%3A6969","udp%3A%2F%2Fzer0day.ch%3A1337","udp%3A%2F%2Fopen.demonii.com%3A1337","udp%3A%2F%2Ftracker.coppersurfer.tk%3A6969","udp%3A%2F%2Fexodus.desync.com%3A6969"],"infoHash":"6534577848fe88b2ca28065bbbda5dd9e1f04f73","infoHashBuffer":{"type":"Buffer","data":[101,52,87,120,72,254,136,178,202,40,6,91,187,218,93,217,225,240,79,115]},"announce":[],"urlList":[]}}